<svg xmlns="http://www.w3.org/2000/svg" viewBox="0 0 161 24" role="img" aria-label="norma contábil">
  <g>
    <path fill="#F6FAFF" d="M31.722 7.013V8.41q1.02-1.593 3.018-1.616h.156q2.441.001 3.441 1.284.998 1.283.998 3.676v5.225h-2.863v-5.225q0-2.68-1.997-2.7h-.067q-1.332 0-1.954.874-.622.875-.622 2.491v4.562H28.97V7.017h2.753z"/>
    <path fill="#F6FAFF" d="M41.844 8.275q1.51-1.483 4.15-1.484t4.162 1.484q1.52 1.484 1.52 3.72c0 1.49-.502 2.745-1.51 3.719q-1.531 1.483-4.172 1.484t-4.161-1.495q-1.52-1.493-1.52-3.708c0-1.477.51-2.73 1.53-3.72m1.375 3.721q0 1.285.71 2.126.712.84 2.064.84c.902 0 1.573-.283 2.054-.853q.72-.852.72-2.114 0-1.328-.71-2.148-.71-.818-2.064-.818-1.352.001-2.064.818-.71.82-.71 2.148z"/>
    <path fill="#F6FAFF" d="M52.762 7.013h2.798v1.484q.888-1.483 2.686-1.484h1.177v2.393h-1.11q-1.754 0-2.22.852-.465.853-.466 3.687v3.033h-2.863V7.015z"/>
    <path fill="#F6FAFF" d="M63.15 7.013V8.43q.954-1.57 2.975-1.639h.2q2.686 0 3.619 1.838 1.154-1.772 3.418-1.838h.244q2.218 0 3.173 1.207.955 1.205.955 3.575v5.401H74.87v-5.401q0-1.239-.5-1.883-.5-.64-1.389-.641-1.356.001-1.92.818-.565.818-.565 2.546v4.561h-2.863v-5.401q0-1.239-.499-1.883-.5-.64-1.388-.641-1.353.001-1.92.818-.565.82-.565 2.546v4.561h-2.863V7.011h2.752z"/>
    <path fill="#F6FAFF" d="M80.219 8.187q1.374-1.373 3.64-1.372.244 0 .488.022 1.953.088 2.908 1.638V7.013h2.753v9.963h-2.863v-1.372q-.933 1.439-2.753 1.549a9 9 0 0 1-.621.023q-2.198 0-3.63-1.384t-1.431-3.776c0-1.595.502-2.827 1.509-3.83m1.399 3.831q0 1.395.788 2.147.788.753 1.986.752c.8 0 1.495-.25 1.998-.752q.755-.754.755-2.17-.002-1.53-.743-2.225-.745-.698-2.008-.698c-.842 0-1.48.254-1.997.765q-.778.763-.777 2.18z"/>
    <path fill="#F6FAFF" d="M92.848 8.21q1.42-1.417 3.819-1.417 1.22 0 2.152.321.933.322 1.399.775.467.455.765.896.299.444.367.754l.066.332h-1.664l-.067-.2q-.045-.133-.266-.444a3 3 0 0 0-.522-.553q-.3-.244-.898-.444a4.2 4.2 0 0 0-1.332-.198q-1.644 0-2.654 1.073t-1.01 2.845q0 1.77 1.021 2.888 1.022 1.119 2.64 1.118.755 0 1.355-.233.597-.232.909-.554a3.7 3.7 0 0 0 .511-.652q.198-.332.244-.554l.067-.243h1.665a13 13 0 0 1-.078.377q-.056.243-.356.842a3.9 3.9 0 0 1-.765 1.05q-.466.455-1.399.832-.932.376-2.152.377-2.42 0-3.841-1.417-1.42-1.418-1.42-3.83c0-1.608.48-2.798 1.442-3.74z"/>
    <path fill="#F6FAFF" d="M103.457 8.254q1.465-1.462 3.927-1.463 2.463 0 3.928 1.463 1.466 1.46 1.466 3.74c0 1.52-.485 2.804-1.453 3.765q-1.454 1.44-3.941 1.439c-1.657 0-2.951-.483-3.927-1.45q-1.466-1.45-1.466-3.752c0-1.534.488-2.767 1.466-3.74zm.11 3.742q0 1.794 1.032 2.878 1.034 1.085 2.785 1.085c1.168 0 2.079-.36 2.775-1.085q1.042-1.086 1.043-2.878c0-1.193-.344-2.118-1.032-2.855q-1.034-1.107-2.786-1.107c-1.167 0-2.078.37-2.774 1.107q-1.044 1.108-1.043 2.855"/>
    <path fill="#F6FAFF" d="M115.442 7.013v1.882q.4-.908 1.31-1.494.911-.587 2.086-.61h.089q2.242 0 3.286 1.163 1.042 1.164 1.043 3.554v5.468h-1.555v-5.468q0-1.814-.665-2.613-.666-.796-2.176-.796c-1.009 0-1.835.306-2.442.917q-.91.92-.909 2.89v5.07h-1.533V7.013z"/>
    <path fill="#F6FAFF" d="M124.931 4.114h1.533v2.901h2.817v1.329h-2.817v6.663q-.001.375.121.509.121.132.477.133h2.153v1.329h-2.153q-1.177 0-1.654-.42t-.477-1.55z"/>
    <path fill="#F6FAFF" d="M129.927 12.04q0-2.347 1.386-3.797 1.388-1.45 3.85-1.45t3.841 1.926V7.013h1.465v9.963h-1.532v-1.639q-1.31 1.794-3.64 1.859h-.29q-2.308 0-3.696-1.394-1.387-1.394-1.386-3.764zm1.596 0q.001 1.747 1.043 2.834 1.042 1.085 2.752 1.085t2.664-1.128q.955-1.13.955-2.835c0-1.137-.318-2.136-.955-2.866q-.953-1.096-2.664-1.096-1.71 0-2.752 1.072-1.044 1.073-1.043 2.934m4.484-8.856h2.064l-2.064 2.59h-1.132z"/>
    <path fill="#F6FAFF" d="M143.708 2.74v5.802q1.376-1.749 3.707-1.749 2.465 0 3.85 1.45t1.386 3.797c0 1.565-.462 2.834-1.386 3.764q-1.387 1.395-3.696 1.394h-.289q-2.308-.066-3.64-1.883v1.66h-1.466V2.74zm.911 12.089q.954 1.128 2.663 1.128c1.138 0 2.038-.36 2.741-1.085q1.055-1.085 1.054-2.834 0-1.86-1.043-2.933-1.044-1.074-2.752-1.073-1.708-.001-2.675 1.096-.966 1.095-.966 2.867c0 1.18.326 2.08.976 2.834z"/>
    <path fill="#F6FAFF" d="M153.83 3.694q0-.487.333-.831t.798-.343c.311 0 .604.114.832.343q.344.343.345.831c0 .326-.116.575-.345.797q-.344.333-.832.332c-.325 0-.578-.11-.798-.332a1.08 1.08 0 0 1-.333-.797m1.93 3.32v9.962h-1.532V7.013z"/>
    <path fill="#F6FAFF" d="M157.913 2.74h1.531v12.265q-.001.376.123.509.121.133.5.133H161v1.329h-.933q-1.2 0-1.675-.42-.477-.42-.477-1.55V2.74z"/>
    <path fill="url(#nc-x-a)" d="m19.32 0-5.846 4.284c-.37.272-.589.703-.589 1.163v5.702l6.435-4.73z"/>
    <path fill="url(#nc-x-b)" d="M0 1.688v5.69c0 .457.219.888.587 1.16l5.847 4.298L0 17.568.014 24l5.85-4.3c.368-.27.585-.7.585-1.157v-5.706l12.869 9.461V16.61c0-.46-.219-.89-.59-1.165l-5.845-4.298-6.434-4.73L0 1.685z"/>
    <defs fill="none">
      <linearGradient gradientUnits="userSpaceOnUse" y2="-243.218" x2="2.037" y1="-243.218" x1="17.281" id="nc-x-a">
        <stop stop-color="#0CEBEB"/><stop stop-color="#13F0E1" offset=".36"/><stop stop-color="#27FDC8" offset=".95"/><stop stop-color="#29FFC6" offset="1"/>
      </linearGradient>
      <linearGradient gradientUnits="userSpaceOnUse" y2="-243.218" x2="2.037" y1="-243.218" x1="17.281" id="nc-x-b">
        <stop stop-color="#0CEBEB"/><stop stop-color="#13F0E1" offset=".36"/><stop stop-color="#27FDC8" offset=".95"/><stop stop-color="#29FFC6" offset="1"/>
      </linearGradient>
    </defs>
  </g>
</svg>
